<svg xmlns="http://www.w3.org/2000/svg" shape-rendering="geometricPrecision" text-rendering="geometricPrecision" image-rendering="optimizeQuality" fill-rule="evenodd" clip-rule="evenodd" viewBox="0 0 512 438.89"><path d="M346.34 216.95c30.62 0 58.39 12.45 78.46 32.52 20.06 20.07 32.51 47.83 32.51 78.45 0 30.62-12.45 58.39-32.51 78.46-20.07 20.07-47.84 32.51-78.46 32.51-30.62 0-58.39-12.44-78.45-32.51-20.07-20.07-32.52-47.84-32.52-78.46 0-30.62 12.45-58.38 32.52-78.45 20.06-20.07 47.83-32.52 78.45-32.52zM188.72 396.22h33.42c4.88 8.84 10.69 17.1 17.28 24.68h-75.38V239.95L12.1 61.85C5.95 53.8 2.28 45.93.78 38.73c-1.59-7.83-.71-15 2.33-21.1 3.17-6.3 8.43-11.2 15.44-14.22C24.35.97 31.37-.27 39.3.05L478.56.02c7.14.09 13.1 1.36 17.9 3.61 6.99 3.27 11.61 8.46 13.92 14.9 2.09 5.82 2.12 12.38.33 19.1-1.9 7.13-6.03 14.87-12.02 22.31l-111.42 132.2c-8.86-2.67-18.09-4.48-27.58-5.38L479.55 44.55c3.75-4.73 6.32-9.33 7.36-13.29.53-1.99.65-3.55.34-4.46-.1-.27-.51-.6-1.19-.92-1.66-.77-4.17-1.23-7.5-1.24H38.72c-4.38-.22-7.91.28-10.44 1.37-1.61.73-2.7 1.63-3.19 2.6-.59 1.16-.69 2.92-.25 5.12.77 3.65 2.94 8.06 6.71 13.04l154.17 180.69 3 8v160.76zM99.44 46.99l69.16 81.05-18.67 16.01L80.77 63l18.67-16.01zm84.81 99.39 24.45 28.66-18.68 16.01-24.45-28.66 18.68-16.01zm194.94 125.97c-1.44-.97-3.06-1.4-4.72-1.07-1.65.32-3.06 1.18-4.04 2.61l-5.6 7.88c-3.77-1.69-8.59-2.79-12.68-3.38l-1.76-10.31c-.34-1.73-1.22-3.05-2.52-4.05-1.42-.98-2.95-1.32-4.7-.98l-12.93 2.3c-1.63.34-2.95 1.11-4.04 2.52-.99 1.42-1.41 2.97-1.11 4.71l1.65 9.41c-3.97 1.67-7.91 4.1-11.28 6.8l-8.76-6.04c-1.41-.98-2.94-1.41-4.59-1.07-1.63.31-3.06 1.19-4.05 2.62l-7.44 10.62c-.98 1.41-1.42 3.05-1.09 4.7.32 1.75 1.2 3.06 2.62 4.05l7.88 5.59c-1.66 3.75-2.8 8.63-3.39 12.69l-10.28 1.76c-1.75.33-3.07 1.2-4.07 2.51-.97 1.43-1.29 2.96-.97 4.7l2.28 12.92c.34 1.65 1.11 2.97 2.54 4.06 1.4.99 2.95 1.42 4.71 1.09l9.41-1.64c1.73 4.13 4.11 7.83 6.78 11.39l-6.02 8.64c-.99 1.42-1.42 2.97-1.09 4.61.33 1.63 1.21 3.06 2.62 4.04l10.73 7.55c1.43 1 3.06 1.32 4.7 1 1.65-.33 3.06-1.11 4.17-2.53l5.58-7.99c3.83 1.7 8.55 2.76 12.7 3.4l1.76 10.29c.32 1.76 1.19 3.08 2.5 4.05 1.44.98 2.97 1.31 4.71.98l12.93-2.29c1.64-.33 2.94-1.1 4.05-2.53.98-1.42 1.41-2.94 1.09-4.7l-1.64-9.41c4.16-1.76 7.78-4.11 11.39-6.79l8.65 6.02c1.41.98 2.94 1.42 4.7 1.09 1.74-.32 3.06-1.2 4.05-2.62l7.55-10.74c.98-1.42 1.31-3.06.98-4.69-.32-1.66-1.09-3.08-2.5-4.17l-8-5.48c1.66-3.74 2.8-8.62 3.39-12.68l10.28-1.76c1.76-.33 3.08-1.21 4.08-2.53.97-1.41 1.3-2.94.97-4.7l-2.29-12.91c-.34-1.66-1.11-2.96-2.53-4.05-1.41-1-2.96-1.44-4.72-1.11l-9.41 1.65c-1.8-4.09-3.97-7.77-6.78-11.27l6.02-8.76c.99-1.43 1.43-2.96 1.09-4.6-.33-1.65-1.21-3.06-2.62-4.06l-10.62-7.44-.32.1zm-32.83 27.97c15.24 0 27.6 12.35 27.6 27.6 0 15.25-12.36 27.6-27.6 27.6-15.25 0-27.61-12.35-27.61-27.6 0-15.25 12.36-27.6 27.61-27.6z" fill="#ffffff"/></svg>